# File created by Blade
# Date/Time:  Fri Jan 16 19:32:17 2015
# Frame Rate: 120.000 fps
#------------------------------------------------------
:FULLY-SPECIFIED
:DEGREES
390
root 19.736682 35.420534 -19.531497 13.738081 13.175192 0.255643
Spine -28.983728 -11.389415 -0.708143
Head 18.021187 -2.739065 7.874716
LeftShoulder -6.914022 0.011037 -8.027359
LeftArm -103.026522 56.877127 -203.584338
LeftForeArm 46.860379 -0.000000 137.565286
LeftHand 11.606261 -0.000000 -23.212193
LeftHandThumb1 -26.253704 0.000000 33.147579
RightShoulder -19.832330 29.466404 -40.261254
RightArm -202.189695 52.785544 -247.784696
RightForeArm 19.067304 -0.000000 150.907174
RightHand 4.822699 -0.000000 -8.589342
RightHandThumb1 -24.326973 -0.000000 -32.862282
LeftUpLeg -3.570083 -0.799660 1.577216
LeftLeg -7.901501 -0.000000 0.000000
LeftFoot -19.643820 26.270433 -13.525990
LeftToeBase 25.626124 -0.000000 -0.000000
RightUpLeg -0.752633 -18.066690 -0.047158
RightLeg -5.276210 -0.000000 0.000000
RightFoot -23.692371 -24.697502 21.972085
RightToeBase 23.172878 -0.000000 -0.000000
391
root 19.736247 35.420380 -19.535608 13.722030 13.183860 0.258508
Spine -28.990313 -11.357246 -0.722314
Head 18.071942 -2.745850 7.838890
LeftShoulder -6.971759 0.011787 -8.066412
LeftArm -103.024251 56.847614 -203.591890
LeftForeArm 46.952634 -0.000000 137.564761
LeftHand 11.608476 0.000000 -23.217729
LeftHandThumb1 -26.253704 0.000000 33.147579
RightShoulder -19.829350 29.443149 -40.295344
RightArm -202.108439 52.764533 -247.749495
RightForeArm 19.210000 0.000000 150.881295
RightHand 4.884064 -0.000000 -8.526275
RightHandThumb1 -24.326973 -0.000000 -32.862282
LeftUpLeg -3.570676 -0.812697 1.576540
LeftLeg -7.883810 -0.000000 0.000000
LeftFoot -19.653926 26.276751 -13.516806
LeftToeBase 25.608797 -0.000000 -0.000000
RightUpLeg -0.747601 -18.066965 -0.052054
RightLeg -5.263483 -0.000000 0.000000
RightFoot -23.699825 -24.703132 21.970620
RightToeBase 23.137643 -0.000000 -0.000000
392
root 19.740007 35.419555 -19.535678 13.680170 13.156067 0.266402
Spine -28.977998 -11.283049 -0.750955
Head 18.125071 -2.752460 7.788512
LeftShoulder -7.015012 0.029979 -8.122104
LeftArm -102.931823 56.831485 -203.520059
LeftForeArm 46.900231 0.000000 137.565165
LeftHand 11.624857 -0.000000 -23.284255
LeftHandThumb1 -26.253704 0.000000 33.147579
RightShoulder -19.843436 29.499058 -40.382735
RightArm -202.194577 52.819430 -247.826061
RightForeArm 19.187181 -0.000000 150.871621
RightHand 4.928238 -0.000000 -8.603887
RightHandThumb1 -24.326973 -0.000000 -32.862282
LeftUpLeg -3.514427 -0.765096 1.551280
LeftLeg -7.897866 -0.000000 0.000000
LeftFoot -19.651954 26.260554 -13.503064
LeftToeBase 25.655594 -0.000000 -0.000000
RightUpLeg -0.709415 -18.034967 -0.088922
RightLeg -5.249245 -0.000000 0.000000
RightFoot -23.725186 -24.704599 21.975764
RightToeBase 23.160410 -0.000000 -0.000000
393
root 19.741264 35.419225 -19.538782 13.646579 13.176091 0.277982
Spine -28.965671 -11.252870 -0.779270
Head 18.161939 -2.775444 7.746231
LeftShoulder -7.041725 0.079936 -8.167881
LeftArm -102.875049 56.862536 -203.484580
LeftForeArm 46.824439 -0.000000 137.570429
LeftHand 11.607710 -0.000000 -23.325636
LeftHandThumb1 -26.253704 0.000000 33.147579
RightShoulder -19.833368 29.494537 -40.424704
RightArm -202.157072 52.860256 -247.826299
RightForeArm 19.152980 -0.000000 150.857680
RightHand 4.935461 -0.000000 -8.664004
RightHandThumb1 -24.326973 -0.000000 -32.862282
LeftUpLeg -3.485479 -0.793825 1.543133
LeftLeg -7.896489 -0.000000 0.000000
LeftFoot -19.655534 26.261786 -13.524364
LeftToeBase 25.628603 -0.000000 -0.000000
RightUpLeg -0.674210 -18.043812 -0.112637
RightLeg -5.242553 -0.000000 0.000000
RightFoot -23.736048 -24.700586 21.976149
RightToeBase 23.182294 -0.000000 -0.000000
394
root 19.741712 35.419376 -19.542488 13.624099 13.211588 0.294819
Spine -28.955776 -11.257411 -0.811904
Head 18.173899 -2.799539 7.734153
LeftShoulder -7.077902 0.138720 -8.207910
LeftArm -102.884171 56.901776 -203.496829
LeftForeArm 46.551270 0.000000 137.499815
LeftHand 11.560610 -0.000000 -23.352653
LeftHandThumb1 -26.253704 0.000000 33.147579
RightShoulder -19.835472 29.513969 -40.483232
RightArm -202.136723 52.856098 -247.772497
RightForeArm 19.215309 -0.000000 150.846695
RightHand 4.957929 -0.000000 -8.646492
RightHandThumb1 -24.326973 -0.000000 -32.862282
LeftUpLeg -3.478776 -0.808352 1.531352
LeftLeg -7.880054 -0.000000 0.000000
LeftFoot -19.645937 26.223261 -13.521404
LeftToeBase 25.616188 -0.000000 -0.000000
RightUpLeg -0.648726 -18.045525 -0.133587
RightLeg -5.237787 -0.000000 0.000000
RightFoot -23.753759 -24.722816 21.978351
RightToeBase 23.191749 -0.000000 -0.000000
395
root 19.742567 35.419146 -19.545970 13.594949 13.248172 0.308619
Spine -28.943250 -11.261155 -0.831550
Head 18.190199 -2.805488 7.711901
LeftShoulder -7.113114 0.200323 -8.247456
LeftArm -102.893645 56.967021 -203.556861
LeftForeArm 46.474943 -0.000000 137.492834
LeftHand 11.588504 -0.000000 -23.377619
LeftHandThumb1 -26.253704 0.000000 33.147579
RightShoulder -19.841050 29.504312 -40.545354
RightArm -202.072124 52.724146 -247.650295
RightForeArm 19.589389 -0.000000 150.837095
RightHand 5.062135 -0.000000 -8.263840
RightHandThumb1 -24.326973 -0.000000 -32.862282
LeftUpLeg -3.462935 -0.835382 1.522696
LeftLeg -7.870045 -0.000000 0.000000
LeftFoot -19.639502 26.215297 -13.517061
LeftToeBase 25.645451 -0.000000 -0.000000
RightUpLeg -0.612028 -18.054766 -0.153220
RightLeg -5.240952 -0.000000 0.000000
RightFoot -23.769705 -24.747169 21.976439
RightToeBase 23.166926 -0.000000 -0.000000
396
root 19.742335 35.418995 -19.548625 13.556158 13.295908 0.318549
Spine -28.918669 -11.275794 -0.856656
Head 18.204353 -2.854512 7.681885
LeftShoulder -7.144973 0.219809 -8.302522
LeftArm -102.839471 57.000378 -203.528036
LeftForeArm 46.710939 0.000000 137.567039
LeftHand 11.568225 -0.000000 -23.420864
LeftHandThumb1 -26.253704 0.000000 33.147579
RightShoulder -19.851177 29.484370 -40.590653
RightArm -202.040421 52.654709 -247.567402
RightForeArm 19.667303 -0.000000 150.839341
RightHand 5.093731 0.000000 -8.166498
RightHandThumb1 -24.326973 -0.000000 -32.862282
LeftUpLeg -3.437957 -0.854537 1.519844
LeftLeg -7.860178 -0.000000 0.000000
LeftFoot -19.627720 26.185340 -13.507763
LeftToeBase 25.664337 -0.000000 -0.000000
RightUpLeg -0.563694 -18.083339 -0.168437
RightLeg -5.244030 -0.000000 0.000000
RightFoot -23.776445 -24.760546 21.979438
RightToeBase 23.162161 -0.000000 -0.000000
397
root 19.742622 35.419488 -19.552254 13.529309 13.323996 0.322238
Spine -28.916681 -11.268597 -0.867941
Head 18.229523 -2.890493 7.640779
LeftShoulder -7.167776 0.213082 -8.358149
LeftArm -102.804484 57.014048 -203.521732
LeftForeArm 46.845063 -0.000000 137.579203
LeftHand 11.544318 -0.000000 -23.436188
LeftHandThumb1 -26.253704 0.000000 33.147579
RightShoulder -19.831250 29.422503 -40.600044
RightArm -201.969707 52.589358 -247.500278
RightForeArm 19.716108 -0.000000 150.846575
RightHand 5.095371 0.000000 -8.165676
RightHandThumb1 -24.326973 -0.000000 -32.862282
LeftUpLeg -3.424703 -0.862407 1.519558
LeftLeg -7.852131 -0.000000 0.000000
LeftFoot -19.633632 26.162868 -13.527902
LeftToeBase 25.682408 -0.000000 -0.000000
RightUpLeg -0.540382 -18.073680 -0.178335
RightLeg -5.236808 -0.000000 0.000000
RightFoot -23.783696 -24.794815 21.978950
RightToeBase 23.168777 -0.000000 -0.000000
398
root 19.737787 35.421174 -19.566468 13.575917 13.337264 0.313332
Spine -28.980476 -11.234346 -0.871553
Head 18.236057 -2.941182 7.614429
LeftShoulder -7.175602 0.191574 -8.395960
LeftArm -102.812599 57.015890 -203.594481
LeftForeArm 46.997277 -0.000000 137.571883
LeftHand 11.542096 -0.000000 -23.426568
LeftHandThumb1 -26.253704 0.000000 33.147579
RightShoulder -19.838886 29.436393 -40.650832
RightArm -202.034114 52.601836 -247.560131
RightForeArm 19.722326 -0.000000 150.864208
RightHand 5.098329 -0.000000 -8.210830
RightHandThumb1 -24.326973 -0.000000 -32.862282
LeftUpLeg -3.528457 -0.848767 1.531995
LeftLeg -7.794995 -0.000000 0.000000
LeftFoot -19.635237 26.145828 -13.493747
LeftToeBase 25.876375 -0.000000 -0.000000
RightUpLeg -0.633556 -17.992714 -0.143310
RightLeg -5.198208 -0.000000 0.000000
RightFoot -23.827417 -24.885172 22.000329
RightToeBase 23.159813 -0.000000 -0.000000
399
root 19.735430 35.421966 -19.572326 13.565465 13.365883 0.312131
Spine -28.990496 -11.228622 -0.886277
Head 18.236411 -3.011657 7.567832
LeftShoulder -7.195692 0.165378 -8.427648
LeftArm -102.797204 57.023252 -203.621387
LeftForeArm 47.059895 0.000000 137.568661
LeftHand 11.529098 0.000000 -23.405870
LeftHandThumb1 -26.253704 0.000000 33.147579
RightShoulder -19.849926 29.456467 -40.697090
RightArm -202.139616 52.603774 -247.651881
RightForeArm 19.757489 -0.000000 150.882713
RightHand 5.100909 -0.000000 -8.233160
RightHandThumb1 -24.326973 -0.000000 -32.862282
LeftUpLeg -3.547431 -0.828624 1.538072
LeftLeg -7.768802 -0.000000 0.000000
LeftFoot -19.625685 26.093026 -13.482783
LeftToeBase 25.708425 -0.000000 -0.000000
RightUpLeg -0.635729 -17.988237 -0.135572
RightLeg -5.185951 -0.000000 0.000000
RightFoot -23.840178 -24.916610 21.998067
RightToeBase 23.176737 -0.000000 -0.000000
400
root 19.734613 35.422635 -19.577323 13.552226 13.397959 0.308497
Spine -29.002912 -11.217456 -0.887177
Head 18.235396 -3.047674 7.520684
LeftShoulder -7.196780 0.156551 -8.453682
LeftArm -102.741775 57.061360 -203.597918
LeftForeArm 47.002173 0.000000 137.578205
LeftHand 11.496524 -0.000000 -23.389143
LeftHandThumb1 -26.253704 0.000000 33.147579
RightShoulder -19.843839 29.469558 -40.739393
RightArm -202.237481 52.624800 -247.774140
RightForeArm 19.766266 0.000000 150.877262
RightHand 5.110704 -0.000000 -8.271999
RightHandThumb1 -24.326973 -0.000000 -32.862282
LeftUpLeg -3.551297 -0.831521 1.540871
LeftLeg -7.771567 -0.000000 0.000000
LeftFoot -19.634126 26.090242 -13.517508
LeftToeBase 25.704939 -0.000000 -0.000000
RightUpLeg -0.637676 -17.961853 -0.131928
RightLeg -5.162750 -0.000000 0.000000
RightFoot -23.869103 -24.957106 22.027600
RightToeBase 23.188571 -0.000000 -0.000000
401
root 19.735163 35.423434 -19.582009 13.529298 13.425129 0.307089
Spine -29.009765 -11.194582 -0.893359
Head 18.255770 -3.054326 7.487601
LeftShoulder -7.179558 0.190764 -8.487280
LeftArm -102.687933 57.139710 -203.563117
LeftForeArm 46.911086 -0.000000 137.589868
LeftHand 11.471487 -0.000000 -23.378101
LeftHandThumb1 -26.253704 0.000000 33.147579
RightShoulder -19.833859 29.490761 -40.782676
RightArm -202.346942 52.638760 -247.928090
RightForeArm 19.805872 -0.000000 150.875598
RightHand 5.144171 0.000000 -8.270941
RightHandThumb1 -24.326973 -0.000000 -32.862282
LeftUpLeg -3.545852 -0.826208 1.540592
LeftLeg -7.761089 -0.000000 0.000000
LeftFoot -19.627692 26.062063 -13.507025
LeftToeBase 25.713277 -0.000000 -0.000000
RightUpLeg -0.627454 -17.954180 -0.135456
RightLeg -5.143307 -0.000000 0.000000
RightFoot -23.884863 -24.983169 22.046037
RightToeBase 23.163530 -0.000000 -0.000000
